<?xml version="1.0" encoding="iso-8859-1"?>
<!-- Generator: Adobe Illustrator 19.0.0, SVG Export Plug-In . SVG Version: 6.00 Build 0)  -->
<svg version="1.1" id="Layer_1" xmlns="http://www.w3.org/2000/svg" xmlns:xlink="http://www.w3.org/1999/xlink" x="0px" y="0px"
	 viewBox="0 0 512 512" style="enable-background:new 0 0 512 512;" xml:space="preserve">
<path style="fill:#AD2201;" d="M368.685,258.064c0,12.187-1.938,23.917-5.527,34.901C348.476,338.115,306.04,370.74,256,370.74
	s-92.477-32.625-107.159-77.775c-3.589-10.984-5.527-22.714-5.527-34.901c0-62.238,50.458-112.686,112.686-112.686
	S368.685,195.826,368.685,258.064z"/>
<path style="fill:#FF3502;" d="M363.158,292.966c-14.682,45.15-57.118,77.775-107.159,77.775s-92.477-32.625-107.159-77.775
	c14.682-45.15,57.108-77.785,107.159-77.785S348.476,247.815,363.158,292.966z"/>
<path style="fill:#2487FF;" d="M330.206,325.154c-0.149,3.499-0.845,6.939-1.541,10.368c-0.557,2.803-0.905,4.97-1.491,6.819
	c-0.875,2.754-2.286,4.831-5.785,7.296c-3.42,2.406-11.114,9.434-15.388,9.434c-15.497,7.684-32.704,11.67-50.001,11.67
	c-18.827,0-37.535-4.742-54.057-13.788c-5.328-2.913-16.77-8.221-19.911-13.907c-0.099-0.159-0.179-0.328-0.258-0.487
	c-1.74-3.718-0.298-11.531-0.398-15.676c-0.149-5.636-0.278-11.273,0.189-16.899c0.944-11.312,4.781-23.092,13.698-30.11
	c16.193-12.713,37.376-17.277,57.605-17.118c17.108,0.139,35.855,2.018,50.955,11.173c6.77,4.095,11.849,9.434,15.766,15.527
	C326.21,299.766,330.762,312.797,330.206,325.154z"/>
<path style="fill:#59A4FF;" d="M327.174,342.341c-0.875,2.754-2.286,4.831-5.785,7.296c-3.42,2.406-11.114,9.434-15.388,9.434
	c-15.497,7.684-32.704,11.67-50.001,11.67c-18.827,0-37.535-4.742-54.057-13.788c-5.328-2.913-16.77-8.221-19.911-13.907
	c1.451-10.01,5.368-19.901,13.231-26.084c16.193-12.724,37.376-17.277,57.605-17.118c17.108,0.139,35.855,2.018,50.955,11.173
	c6.77,4.095,11.849,9.434,15.766,15.527C322.661,331.337,325.295,336.714,327.174,342.341z"/>
<path style="fill:#BFAB92;" d="M294.261,216.811c0,5.328-1.093,10.408-3.062,15.01c-5.835,13.668-19.394,23.251-35.199,23.251
	s-29.364-9.583-35.199-23.251c-1.968-4.602-3.062-9.682-3.062-15.01c0-21.134,17.128-38.261,38.261-38.261
	S294.261,195.677,294.261,216.811z"/>
<path style="fill:#D9CCBC;" d="M291.199,231.821c-5.835,13.668-19.394,23.251-35.199,23.251s-29.364-9.583-35.199-23.251
	c5.835-13.668,19.394-23.251,35.199-23.251C271.805,208.57,285.364,218.153,291.199,231.821z"/>
<polygon points="256,495.3 243.668,488.181 251.124,475.268 256,478.083 256.581,477.747 257.163,478.754 259.727,480.235 
	258.872,481.715 264.036,490.66 "/>
<g>
	
		<rect x="272.23" y="465.554" transform="matrix(-0.5 -0.866 0.866 -0.5 9.8965 951.7324)" style="fill:#3E3D43;" width="14.91" height="14.91"/>
	<polygon style="fill:#3E3D43;" points="233.701,483.204 218.827,473.789 226.282,460.876 241.156,470.292 	"/>
	
		<rect x="298.056" y="450.642" transform="matrix(-0.5 -0.866 0.866 -0.5 61.5492 951.7294)" style="fill:#3E3D43;" width="14.91" height="14.91"/>
	
		<rect x="195.71" y="448.682" transform="matrix(-0.866 -0.5 0.5 -0.866 151.036 952.7456)" style="fill:#3E3D43;" width="14.91" height="14.91"/>
	
		<rect x="323.882" y="435.731" transform="matrix(-0.5 -0.866 0.866 -0.5 113.2011 951.728)" style="fill:#3E3D43;" width="14.91" height="14.91"/>
	
		<rect x="169.905" y="433.774" transform="matrix(-0.866 -0.5 0.5 -0.866 110.3388 912.0249)" style="fill:#3E3D43;" width="14.91" height="14.91"/>
	
		<rect x="349.712" y="420.831" transform="matrix(-0.5 -0.866 0.866 -0.5 164.8504 951.7482)" style="fill:#3E3D43;" width="14.91" height="14.91"/>
	
		<rect x="144.071" y="418.864" transform="matrix(-0.866 -0.5 0.5 -0.866 69.5869 871.2856)" style="fill:#3E3D43;" width="14.91" height="14.91"/>
	
		<rect x="375.537" y="405.919" transform="matrix(-0.5 -0.866 0.866 -0.5 216.5031 951.7453)" style="fill:#3E3D43;" width="14.91" height="14.91"/>
	
		<rect x="118.237" y="403.951" transform="matrix(-0.866 -0.5 0.5 -0.866 28.8369 830.5388)" style="fill:#3E3D43;" width="14.91" height="14.91"/>
	
		<rect x="401.363" y="391.007" transform="matrix(-0.5 -0.866 0.866 -0.5 268.1558 951.7424)" style="fill:#3E3D43;" width="14.91" height="14.91"/>
	
		<rect x="92.423" y="389.045" transform="matrix(-0.866 -0.5 0.5 -0.866 -11.8798 789.8168)" style="fill:#3E3D43;" width="14.91" height="14.91"/>
</g>
<rect x="65.617" y="373.618" transform="matrix(-0.866 -0.5 0.5 -0.866 -54.186 747.6266)" width="14.91" height="14.91"/>
<rect x="446.539" y="357.462" width="14.911" height="14.911"/>
<g>
	<rect x="446.539" y="330.622" style="fill:#3E3D43;" width="14.911" height="14.911"/>
	<rect x="50.546" y="328.644" style="fill:#3E3D43;" width="14.911" height="14.911"/>
	<rect x="446.539" y="300.801" style="fill:#3E3D43;" width="14.911" height="14.911"/>
	<rect x="50.546" y="298.822" style="fill:#3E3D43;" width="14.911" height="14.911"/>
	<rect x="446.539" y="270.979" style="fill:#3E3D43;" width="14.911" height="14.911"/>
	<rect x="50.546" y="269.001" style="fill:#3E3D43;" width="14.911" height="14.911"/>
	<rect x="446.539" y="241.157" style="fill:#3E3D43;" width="14.911" height="14.911"/>
	<rect x="50.546" y="239.179" style="fill:#3E3D43;" width="14.911" height="14.911"/>
	<rect x="446.539" y="211.336" style="fill:#3E3D43;" width="14.911" height="14.911"/>
	<rect x="50.546" y="209.358" style="fill:#3E3D43;" width="14.911" height="14.911"/>
	<rect x="446.539" y="181.514" style="fill:#3E3D43;" width="14.911" height="14.911"/>
	<rect x="50.546" y="179.536" style="fill:#3E3D43;" width="14.911" height="14.911"/>
</g>
<rect x="446.539" y="148.71" width="14.911" height="14.911"/>
<rect x="50.546" y="143.75" width="14.911" height="14.911"/>
<g>
	
		<rect x="427.795" y="124.543" transform="matrix(-0.866 -0.5 0.5 -0.866 746.1849 463.9404)" style="fill:#3E3D43;" width="14.91" height="14.91"/>
	
		<rect x="69.904" y="125.118" transform="matrix(-0.5 -0.866 0.866 -0.5 1.2283 265.8552)" style="fill:#3E3D43;" width="14.91" height="14.91"/>
	
		<rect x="401.991" y="109.622" transform="matrix(-0.866 -0.5 0.5 -0.866 705.4941 423.1955)" style="fill:#3E3D43;" width="14.91" height="14.91"/>
	
		<rect x="95.729" y="110.206" transform="matrix(-0.5 -0.866 0.866 -0.5 52.881 265.8522)" style="fill:#3E3D43;" width="14.91" height="14.91"/>
	
		<rect x="376.157" y="94.711" transform="matrix(-0.866 -0.5 0.5 -0.866 664.7427 382.4544)" style="fill:#3E3D43;" width="14.91" height="14.91"/>
	
		<rect x="121.555" y="95.295" transform="matrix(-0.5 -0.866 0.866 -0.5 104.5328 265.8508)" style="fill:#3E3D43;" width="14.91" height="14.91"/>
	
		<rect x="350.332" y="79.8" transform="matrix(-0.866 -0.5 0.5 -0.866 624.0098 341.7181)" style="fill:#3E3D43;" width="14.91" height="14.91"/>
	
		<rect x="147.389" y="80.377" transform="matrix(-0.5 -0.866 0.866 -0.5 156.2028 265.8478)" style="fill:#3E3D43;" width="14.91" height="14.91"/>
	
		<rect x="324.5" y="64.884" transform="matrix(-0.866 -0.5 0.5 -0.866 583.2634 300.9684)" style="fill:#3E3D43;" width="14.91" height="14.91"/>
	
		<rect x="173.209" y="65.468" transform="matrix(-0.5 -0.866 0.866 -0.5 207.8451 265.8449)" style="fill:#3E3D43;" width="14.91" height="14.91"/>
	
		<rect x="298.675" y="49.974" transform="matrix(-0.866 -0.5 0.5 -0.866 542.5305 260.2321)" style="fill:#3E3D43;" width="14.91" height="14.91"/>
	
		<rect x="199.035" y="50.556" transform="matrix(-0.5 -0.866 0.866 -0.5 259.4979 265.8419)" style="fill:#3E3D43;" width="14.91" height="14.91"/>
	<polygon style="fill:#3E3D43;" points="283.045,52.71 270.367,45.566 277.822,32.654 290.5,39.797 	"/>
	
		<rect x="224.86" y="35.644" transform="matrix(-0.5 -0.866 0.866 -0.5 311.1505 265.8389)" style="fill:#3E3D43;" width="14.91" height="14.91"/>
</g>
<polygon points="260.869,40.853 256,38.041 255.41,38.381 254.822,37.36 252.272,35.889 253.122,34.417 247.957,25.469 256,20.824 
	268.325,27.94 "/>
<g>
	<path style="fill:#3E3D43;" d="M370.409,208.568l-8.099-12.519l12.52-8.1l8.098,12.519L370.409,208.568z M395.449,192.372
		l-8.098-12.521l12.52-8.098l8.098,12.521L395.449,192.372z M420.488,176.175l-8.099-12.521l12.52-8.098l8.099,12.521
		L420.488,176.175z M445.528,159.978l-8.099-12.521l12.52-8.098l8.098,12.521L445.528,159.978z"/>
	<path style="fill:#3E3D43;" d="M450.073,385.249l-12.675-7.853l7.853-12.674l12.675,7.853L450.073,385.249z M424.722,369.543
		l-12.675-7.853l7.853-12.674l12.675,7.853L424.722,369.543z M399.372,353.836l-12.675-7.853l7.853-12.674l12.675,7.853
		L399.372,353.836z M374.021,338.131l-12.675-7.853l7.853-12.674l12.675,7.853L374.021,338.131z M348.673,322.425l-1.038-0.643
		l7.85-12.676l1.038,0.642L348.673,322.425z"/>
	<path style="fill:#3E3D43;" d="M141.591,208.568l-12.52-8.099l8.098-12.519l12.52,8.1L141.591,208.568z M116.551,192.372
		l-12.52-8.098l8.098-12.521l12.52,8.098L116.551,192.372z M91.512,176.175l-12.52-8.098l8.098-12.521l12.52,8.098L91.512,176.175z
		 M66.471,159.978l-12.52-8.098l8.098-12.521l12.52,8.098L66.471,159.978z"/>
	<path style="fill:#3E3D43;" d="M61.928,385.249l-7.853-12.674l12.675-7.853l7.853,12.674L61.928,385.249z M87.278,369.543
		l-7.853-12.674l12.675-7.853l7.853,12.674L87.278,369.543z M112.628,353.836l-7.853-12.674l12.675-7.853l7.853,12.674
		L112.628,353.836z M137.979,338.131l-7.853-12.674l12.675-7.853l7.853,12.674L137.979,338.131z M163.327,322.425l-7.849-12.676
		l1.038-0.642l7.849,12.676L163.327,322.425z"/>
	<path style="fill:#3E3D43;" d="M263.455,144.754h-14.911v-14.911h14.911V144.754z M263.455,114.932h-14.911v-14.911h14.911V114.932
		z M263.455,85.111h-14.911V70.2h14.911V85.111z M263.455,55.289h-14.911V40.378h14.911V55.289z"/>
	<path style="fill:#3E3D43;" d="M263.455,473.278h-14.911v-14.911h14.911V473.278z M263.455,443.456h-14.911v-14.911h14.911V443.456
		z M263.455,413.634h-14.911v-14.911h14.911V413.634z M263.455,383.813h-14.911v-14.911h14.911V383.813z"/>
</g>
<path d="M256,139.158c-65.564,0-118.904,53.34-118.904,118.904S190.436,376.966,256,376.966s118.904-53.34,118.904-118.904
	C374.904,192.498,321.563,139.158,256,139.158z M223.927,356.987v-30.018h-14.911v23.85c-6.44-3.275-12.493-7.204-18.078-11.695
	v-32.55c0-21.759,29.795-40.141,65.061-40.141s65.061,18.382,65.061,40.141v32.55c-5.533,4.449-11.525,8.35-17.9,11.607v-23.762
	H288.25v29.961c-10.158,3.321-20.997,5.125-32.25,5.125C244.811,362.055,234.034,360.272,223.927,356.987z M256,250.607
	c-17.685,0-32.073-14.388-32.073-32.073s14.388-32.073,32.073-32.073s32.073,14.388,32.073,32.073S273.685,250.607,256,250.607z
	 M335.972,324.462v-17.888c0-15.308-8.738-29.474-24.604-39.888c-7.622-5.003-16.496-8.847-26.128-11.417
	c10.802-8.616,17.744-21.876,17.744-36.736c0-25.907-21.077-46.984-46.984-46.984c-25.906,0-46.984,21.077-46.984,46.984
	c0,14.859,6.941,28.12,17.744,36.736c-9.631,2.57-18.506,6.414-26.128,11.417c-15.866,10.415-24.604,24.58-24.604,39.888v17.888
	c-14.992-18.025-24.021-41.178-24.021-66.4c0-57.342,46.652-103.993,103.993-103.993s103.993,46.652,103.993,103.993
	C359.993,283.284,350.963,306.437,335.972,324.462z"/>
<path style="fill:#AD2201;" d="M479.312,145.619c0,4.583-1.223,8.887-3.37,12.595c-4.374,7.595-12.575,12.714-21.949,12.714
	c-13.957,0-25.309-11.352-25.309-25.309c0-9.364,5.119-17.565,12.704-21.929c3.708-2.147,8.012-3.38,12.605-3.38
	C467.95,120.31,479.312,131.662,479.312,145.619z"/>
<path style="fill:#FF3502;" d="M479.312,145.619c0,4.583-1.223,8.887-3.37,12.595c-3.718,2.157-8.032,3.39-12.625,3.39
	c-13.957,0-25.309-11.352-25.309-25.309c0-4.593,1.223-8.897,3.38-12.605c3.708-2.147,8.012-3.38,12.605-3.38
	C467.95,120.31,479.312,131.662,479.312,145.619z"/>
<circle style="fill:#FF6342;" cx="462.473" cy="137.338" r="9.98"/>
<path style="fill:#2487FF;" d="M281.313,25.309c0,4.583-1.223,8.887-3.37,12.595c-4.374,7.595-12.575,12.714-21.949,12.714
	c-13.956,0-25.309-11.352-25.309-25.309c0-9.364,5.119-17.565,12.704-21.929C247.098,1.233,251.402,0,255.995,0
	C269.951,0,281.313,11.352,281.313,25.309z"/>
<path style="fill:#59A4FF;" d="M281.313,25.309c0,4.583-1.223,8.887-3.37,12.595c-3.718,2.157-8.032,3.39-12.624,3.39
	c-13.956,0-25.309-11.352-25.309-25.309c0-4.593,1.223-8.897,3.38-12.605C247.098,1.233,251.402,0,255.995,0
	C269.951,0,281.313,11.352,281.313,25.309z"/>
<circle style="fill:#9BC9FD;" cx="264.468" cy="17.028" r="9.98"/>
<path style="fill:#2487FF;" d="M479.313,378.912c0,4.583-1.223,8.887-3.37,12.595c-4.374,7.595-12.575,12.714-21.949,12.714
	c-13.957,0-25.309-11.352-25.309-25.309c0-9.364,5.119-17.565,12.704-21.929c3.708-2.147,8.012-3.38,12.605-3.38
	C467.951,353.604,479.313,364.956,479.313,378.912z"/>
<path style="fill:#59A4FF;" d="M479.313,378.912c0,4.583-1.223,8.887-3.37,12.595c-3.718,2.157-8.032,3.39-12.624,3.39
	c-13.957,0-25.309-11.352-25.309-25.309c0-4.592,1.223-8.897,3.38-12.605c3.708-2.147,8.012-3.38,12.605-3.38
	C467.951,353.604,479.313,364.956,479.313,378.912z"/>
<circle style="fill:#9BC9FD;" cx="462.473" cy="370.633" r="9.98"/>
<path style="fill:#BC9A0D;" d="M83.315,145.379c0,4.583-1.223,8.887-3.37,12.595c-4.374,7.595-12.575,12.714-21.949,12.714
	c-13.957,0-25.309-11.352-25.309-25.309c0-9.364,5.119-17.565,12.704-21.929c3.708-2.147,8.012-3.38,12.605-3.38
	C71.953,120.07,83.315,131.422,83.315,145.379z"/>
<path style="fill:#FFD833;" d="M83.315,145.379c0,4.583-1.223,8.887-3.37,12.595c-3.718,2.157-8.032,3.39-12.624,3.39
	c-13.957,0-25.309-11.352-25.309-25.309c0-4.593,1.223-8.897,3.38-12.605c3.708-2.147,8.012-3.38,12.605-3.38
	C71.953,120.07,83.315,131.422,83.315,145.379z"/>
<circle style="fill:#FCDF68;" cx="66.471" cy="137.1" r="9.98"/>
<path style="fill:#BC9A0D;" d="M281.313,486.691c0,4.583-1.223,8.887-3.37,12.595C273.569,506.881,265.368,512,255.995,512
	c-13.956,0-25.309-11.352-25.309-25.309c0-9.364,5.119-17.565,12.704-21.929c3.708-2.147,8.012-3.38,12.605-3.38
	C269.951,461.383,281.313,472.735,281.313,486.691z"/>
<path style="fill:#FFD833;" d="M281.313,486.691c0,4.583-1.223,8.887-3.37,12.595c-3.718,2.157-8.032,3.39-12.624,3.39
	c-13.956,0-25.309-11.352-25.309-25.309c0-4.592,1.223-8.897,3.38-12.605c3.708-2.147,8.012-3.38,12.605-3.38
	C269.951,461.383,281.313,472.735,281.313,486.691z"/>
<circle style="fill:#FCDF68;" cx="264.468" cy="478.408" r="9.98"/>
<path style="fill:#806749;" d="M83.315,378.91c0,4.583-1.223,8.887-3.37,12.595c-4.374,7.595-12.575,12.714-21.949,12.714
	c-13.957,0-25.309-11.352-25.309-25.309c0-9.364,5.119-17.565,12.704-21.929c3.708-2.147,8.012-3.38,12.605-3.38
	C71.953,353.602,83.315,364.954,83.315,378.91z"/>
<path style="fill:#A78967;" d="M83.315,378.91c0,4.583-1.223,8.887-3.37,12.595c-3.718,2.157-8.032,3.39-12.624,3.39
	c-13.957,0-25.309-11.352-25.309-25.309c0-4.593,1.223-8.897,3.38-12.605c3.708-2.147,8.012-3.38,12.605-3.38
	C71.953,353.602,83.315,364.954,83.315,378.91z"/>
<circle style="fill:#BFAB92;" cx="66.471" cy="370.633" r="9.98"/>
<g>
</g>
<g>
</g>
<g>
</g>
<g>
</g>
<g>
</g>
<g>
</g>
<g>
</g>
<g>
</g>
<g>
</g>
<g>
</g>
<g>
</g>
<g>
</g>
<g>
</g>
<g>
</g>
<g>
</g>
</svg>
